HIERARCHY
ROOT joint_Root
{
	OFFSET 0.0 0.0 0.0
	CHANNELS 6 Xposition Yposition Zposition Zrotation Xrotation Yrotation 
	JOINT Hips
	{
		OFFSET 4.5925 91.4895 -427.239
		CHANNELS 6 Xposition Yposition Zposition Zrotation Xrotation Yrotation 
		JOINT Spine
		{
			OFFSET 15.7357 0.0 0.0
			CHANNELS 6 Xposition Yposition Zposition Zrotation Xrotation Yrotation 
			JOINT Chest
			{
				OFFSET 8.98455 -0.406207 0.0
				CHANNELS 6 Xposition Yposition Zposition Zrotation Xrotation Yrotation 
				JOINT Neck
				{
					OFFSET 16.3773 0.0 0.0
					CHANNELS 6 Xposition Yposition Zposition Zrotation Xrotation Yrotation 
					JOINT Head
					{
						OFFSET 6.45672 0.0 0.0
						CHANNELS 6 Xposition Yposition Zposition Zrotation Xrotation Yrotation 
						End Site
						{
							OFFSET 0.0 0.0 0.0
						}
					}
				}
				JOINT Shoulder_L
				{
					OFFSET 12.9942 -0.242716 4.98039
					CHANNELS 6 Xposition Yposition Zposition Zrotation Xrotation Yrotation 
					JOINT UpperArm_L
					{
						OFFSET 5.34809 0.0 0.0
						CHANNELS 6 Xposition Yposition Zposition Zrotation Xrotation Yrotation 
						JOINT LowerArm_L
						{
							OFFSET 24.3286 1.87007e-05 0.0
							CHANNELS 6 Xposition Yposition Zposition Zrotation Xrotation Yrotation 
							JOINT Hand_L
							{
								OFFSET 22.2916 0.0 0.0
								CHANNELS 6 Xposition Yposition Zposition Zrotation Xrotation Yrotation 
								End Site
								{
									OFFSET 0.0 0.0 0.0
								}
							}
						}
					}
				}
				JOINT Shoulder_R
				{
					OFFSET 12.9945 -0.242716 -4.98039
					CHANNELS 6 Xposition Yposition Zposition Zrotation Xrotation Yrotation 
					JOINT UpperArm_R
					{
						OFFSET -5.34813 0.0 0.0
						CHANNELS 6 Xposition Yposition Zposition Zrotation Xrotation Yrotation 
						JOINT LowerArm_R
						{
							OFFSET -24.3289 0.000322201 0.0
							CHANNELS 6 Xposition Yposition Zposition Zrotation Xrotation Yrotation 
							JOINT Hand_R
							{
								OFFSET -22.2915 -0.000108084 0.0
								CHANNELS 6 Xposition Yposition Zposition Zrotation Xrotation Yrotation 
								End Site
								{
									OFFSET 0.0 0.0 0.0
								}
							}
						}
					}
				}
			}
		}
		JOINT UpperLeg_L
		{
			OFFSET -2.19248 -6.46944 0.0
			CHANNELS 6 Xposition Yposition Zposition Zrotation Xrotation Yrotation 
			JOINT LowerLeg_L
			{
				OFFSET 39.0811 0.0 -1.23785e-05
				CHANNELS 6 Xposition Yposition Zposition Zrotation Xrotation Yrotation 
				JOINT Foot_L
				{
					OFFSET 40.9854 0.0 -1.26872e-05
					CHANNELS 6 Xposition Yposition Zposition Zrotation Xrotation Yrotation 
					JOINT Toes_L
					{
						OFFSET 11.7543 0.0 0.0
						CHANNELS 6 Xposition Yposition Zposition Zrotation Xrotation Yrotation 
						End Site
						{
							OFFSET 0.0 0.0 0.0
						}
					}
				}
			}
		}
		JOINT UpperLeg_R
		{
			OFFSET -2.19251 6.46944 0.0
			CHANNELS 6 Xposition Yposition Zposition Zrotation Xrotation Yrotation 
			JOINT LowerLeg_R
			{
				OFFSET -39.0811 -0.00228153 -0.0401928
				CHANNELS 6 Xposition Yposition Zposition Zrotation Xrotation Yrotation 
				JOINT Foot_R
				{
					OFFSET -40.9854 0.0 0.0
					CHANNELS 6 Xposition Yposition Zposition Zrotation Xrotation Yrotation 
					JOINT Toes_R
					{
						OFFSET -11.7543 0.0 0.0
						CHANNELS 6 Xposition Yposition Zposition Zrotation Xrotation Yrotation 
						End Site
						{
							OFFSET 0.0 0.0 0.0
						}
					}
				}
			}
		}
	}
}
MOTION
Frames:	4
Frame Time:	0.0333333
0.000000 0.000000 0.000000 0.000000 0.000000 -0.000000 -4.490260 90.629100 0.932285 89.917400 1.937850 10.339900 15.735700 0.000005 -0.000001 87.723500 81.241100 -86.676000 8.984550 -0.406207 -0.000000 9.745540 -0.673584 2.150790 16.377300 -0.000001 -0.000001 3.325350 -4.184120 2.785370 6.456720 -0.000001 -0.000000 -8.305330 -4.245190 6.175370 12.994200 -0.242716 4.980390 -91.752200 6.703510 -75.314900 5.348090 -0.000007 -0.000001 -60.811200 39.844300 -18.734000 24.328600 0.000019 0.000005 7.875560 26.106000 -17.450700 22.291600 -0.000001 0.000005 7.681880 5.292990 0.267794 12.994500 -0.242716 -4.980390 88.371400 12.079000 -82.262600 -5.348130 -0.000001 -0.000004 -59.232900 31.164600 -11.419300 -24.328900 0.000322 -0.000009 1.473090 5.481840 -15.076600 -22.291500 -0.000108 -0.000004 11.723400 5.395590 -2.794620 -2.192480 -6.469440 -0.000000 -171.860000 -12.125600 0.833771 39.081100 -0.000007 -0.000012 -0.263891 0.454742 30.127400 40.985400 -0.000006 -0.000013 -2.228800 7.457480 -69.760800 11.754300 -0.000000 0.000003 -0.000225 -0.002044 -16.654400 -2.192510 6.469440 -0.000001 173.436000 26.739400 -175.416000 -39.081100 -0.002282 -0.040193 -0.226573 0.405922 29.523400 -40.985400 0.000008 0.000006 4.566270 11.652200 -72.978500 -11.754300 -0.000006 -0.000006 -0.001586 -0.023413 -17.525100
0.000000 0.000000 0.000000 0.000000 0.000000 -0.000000 -4.607590 90.636200 0.990399 89.930600 1.926890 10.156100 15.735700 0.000005 -0.000001 87.588500 81.283800 -86.512500 8.984550 -0.406207 -0.000000 9.659030 -0.711366 2.210490 16.377300 -0.000001 -0.000001 3.639800 -4.121360 2.837930 6.456720 -0.000001 -0.000000 -7.698030 -4.257780 6.554720 12.994200 -0.242716 4.980390 -91.822500 6.633630 -74.600500 5.348090 -0.000007 -0.000001 -61.317900 36.475500 -17.439500 24.328600 0.000019 0.000005 8.979580 28.042300 -18.578400 22.291600 -0.000001 0.000005 6.346630 5.299420 0.088069 12.994500 -0.242716 -4.980390 88.254800 12.159100 -81.768700 -5.348130 -0.000001 -0.000004 -58.232400 28.300500 -10.973900 -24.328900 0.000322 -0.000009 1.809500 6.582460 -15.416300 -22.291500 -0.000108 -0.000004 10.560400 5.397130 -2.844990 -2.192480 -6.469440 -0.000000 -171.811000 -12.175600 0.750291 39.081100 -0.000007 -0.000012 -0.263809 0.456772 30.009100 40.985400 -0.000006 -0.000013 -2.309330 7.522140 -69.720500 11.754300 -0.000000 0.000003 -0.000206 -0.001897 -16.649000 -2.192510 6.469440 -0.000001 173.566000 26.754600 -175.529000 -39.081100 -0.002282 -0.040193 -0.232992 0.418742 29.436300 -40.985400 0.000008 0.000006 4.618640 11.635600 -73.004300 -11.754300 -0.000006 -0.000006 -0.001641 -0.024129 -17.554300
0.000000 0.000000 0.000000 0.000000 0.000000 -0.000000 -4.700650 90.636500 1.032240 89.974000 1.835490 10.026400 15.735700 0.000005 -0.000001 87.551900 81.323800 -86.455100 8.984550 -0.406207 -0.000000 9.578970 -0.719539 2.252220 16.377300 -0.000001 -0.000001 4.067640 -4.057010 2.841210 6.456720 -0.000001 -0.000000 -6.974400 -4.260470 6.861490 12.994200 -0.242716 4.980390 -91.897900 6.622390 -73.969200 5.348090 -0.000007 -0.000001 -61.478600 32.230000 -16.289100 24.328600 0.000019 0.000005 10.139600 28.724500 -20.411000 22.291600 -0.000001 0.000005 4.625740 5.307720 -0.145572 12.994500 -0.242716 -4.980390 88.159700 12.114100 -81.295300 -5.348130 -0.000001 -0.000004 -56.815700 24.832500 -10.906000 -24.328900 0.000322 -0.000009 1.730910 5.905980 -16.377000 -22.291500 -0.000108 -0.000004 10.332500 5.391010 -2.647460 -2.192480 -6.469440 -0.000000 -171.787000 -12.278900 0.713299 39.081100 -0.000007 -0.000012 -0.264869 0.460253 29.920300 40.985400 -0.000006 -0.000013 -2.390670 7.519200 -69.692400 11.754300 -0.000000 0.000003 -0.000213 -0.001948 -16.650900 -2.192510 6.469440 -0.000001 173.626000 26.809700 -175.636000 -39.081100 -0.002282 -0.040193 -0.231309 0.415936 29.425900 -40.985400 0.000008 0.000006 4.711330 11.721500 -73.056800 -11.754300 -0.000006 -0.000006 -0.001701 -0.024911 -17.586000
0.000000 0.000000 0.000000 0.000000 0.000000 -0.000000 -4.804580 90.633700 1.054030 89.980400 1.777170 9.969670 15.735700 0.000005 -0.000001 87.592600 81.344200 -86.470400 8.984550 -0.406207 -0.000000 9.538840 -0.705609 2.301510 16.377300 -0.000001 -0.000001 4.649480 -4.051380 2.920900 6.456720 -0.000001 -0.000000 -6.205530 -4.210660 6.970800 12.994200 -0.242716 4.980390 -91.972000 6.703130 -73.564800 5.348090 -0.000007 -0.000001 -60.817600 27.730100 -15.811100 24.328600 0.000019 0.000005 10.903300 28.202700 -22.176000 22.291600 -0.000001 0.000005 3.070520 5.310600 -0.227231 12.994500 -0.242716 -4.980390 88.075100 11.981600 -80.803800 -5.348130 -0.000001 -0.000004 -55.019200 21.003200 -11.294800 -24.328900 0.000322 -0.000009 1.628480 5.037550 -17.952300 -22.291500 -0.000108 -0.000004 10.425100 5.388320 -2.561850 -2.192480 -6.469440 -0.000000 -171.708000 -12.331000 0.705190 39.081100 -0.000007 -0.000012 -0.268402 0.467310 29.871600 40.985400 -0.000006 -0.000013 -2.469470 7.552540 -69.666200 11.754300 -0.000000 0.000003 -0.000217 -0.001984 -16.652200 -2.192510 6.469440 -0.000001 173.717000 26.832200 -175.691000 -39.081100 -0.002282 -0.040193 -0.229633 0.413056 29.420400 -40.985400 0.000008 0.000006 4.801670 11.756500 -73.094900 -11.754300 -0.000006 -0.000006 -0.001389 -0.020783 -17.418200
